<svg width="400" height="44" viewBox="0 0 400 44" fill="none" xmlns="http://www.w3.org/2000/svg">
<path d="M58.508 36V7.664H64.492L72.808 24.692L81.124 7.664H87.064V36H81.124V17.564L74.524 31.116H71.092L64.448 17.564V36H58.508ZM100.995 36.44C97.0933 36.44 94.2333 35.5013 92.4146 33.624C90.5959 31.7173 89.6866 29.0333 89.6866 25.572C89.6866 22.1107 90.5959 19.4413 92.4146 17.564C94.2626 15.6573 97.1226 14.704 100.995 14.704C104.896 14.704 107.756 15.6573 109.575 17.564C111.423 19.4413 112.347 22.1107 112.347 25.572C112.347 29.0333 111.437 31.7173 109.619 33.624C107.8 35.5013 104.925 36.44 100.995 36.44ZM100.995 31.38C102.901 31.38 104.265 30.9547 105.087 30.104C105.908 29.224 106.319 27.7133 106.319 25.572C106.319 23.4307 105.908 21.9347 105.087 21.084C104.265 20.204 102.901 19.764 100.995 19.764C99.1173 19.764 97.7679 20.204 96.9466 21.084C96.1253 21.9347 95.7146 23.4307 95.7146 25.572C95.7146 27.7133 96.1253 29.224 96.9466 30.104C97.7679 30.9547 99.1173 31.38 100.995 31.38ZM125.405 36.44C121.503 36.44 118.643 35.5013 116.825 33.624C115.006 31.7173 114.097 29.0333 114.097 25.572C114.097 22.1107 115.006 19.4413 116.825 17.564C118.673 15.6573 121.533 14.704 125.405 14.704C129.306 14.704 132.166 15.6573 133.985 17.564C135.833 19.4413 136.757 22.1107 136.757 25.572C136.757 29.0333 135.847 31.7173 134.029 33.624C132.21 35.5013 129.335 36.44 125.405 36.44ZM125.405 31.38C127.311 31.38 128.675 30.9547 129.497 30.104C130.318 29.224 130.729 27.7133 130.729 25.572C130.729 23.4307 130.318 21.9347 129.497 21.084C128.675 20.204 127.311 19.764 125.405 19.764C123.527 19.764 122.178 20.204 121.357 21.084C120.535 21.9347 120.125 23.4307 120.125 25.572C120.125 27.7133 120.535 29.224 121.357 30.104C122.178 30.9547 123.527 31.38 125.405 31.38ZM139.387 36V15.144H144.887L145.107 17.124C145.958 16.4787 147.028 15.9213 148.319 15.452C149.639 14.9533 151.018 14.704 152.455 14.704C155.212 14.704 157.222 15.3493 158.483 16.64C159.744 17.9307 160.375 19.9253 160.375 22.624V36H154.435V22.932C154.435 21.524 154.142 20.5267 153.555 19.94C152.998 19.3533 151.942 19.06 150.387 19.06C149.478 19.06 148.554 19.2653 147.615 19.676C146.706 20.0867 145.943 20.6 145.327 21.216V36H139.387ZM171.059 36.44C169.504 36.44 168.023 36.3227 166.615 36.088C165.207 35.8827 164.078 35.6187 163.227 35.296V30.368C164.254 30.7787 165.412 31.1013 166.703 31.336C167.994 31.5413 169.182 31.644 170.267 31.644C171.734 31.644 172.76 31.556 173.347 31.38C173.963 31.204 174.271 30.808 174.271 30.192C174.271 29.488 173.802 28.9747 172.863 28.652C171.954 28.3293 170.59 27.8747 168.771 27.288C166.864 26.6427 165.398 25.8653 164.371 24.956C163.344 24.0467 162.831 22.6973 162.831 20.908C162.831 18.9133 163.55 17.388 164.987 16.332C166.454 15.2467 168.8 14.704 172.027 14.704C173.318 14.704 174.535 14.8067 175.679 15.012C176.823 15.188 177.791 15.408 178.583 15.672V20.556C177.791 20.1747 176.882 19.896 175.855 19.72C174.828 19.5147 173.875 19.412 172.995 19.412C171.734 19.412 170.722 19.5 169.959 19.676C169.226 19.852 168.859 20.2333 168.859 20.82C168.859 21.4653 169.255 21.92 170.047 22.184C170.868 22.448 172.13 22.844 173.831 23.372C175.503 23.8707 176.808 24.4133 177.747 25C178.686 25.5867 179.346 26.2907 179.727 27.112C180.108 27.904 180.299 28.9013 180.299 30.104C180.299 34.328 177.219 36.44 171.059 36.44ZM182.922 36V6.344H188.862V16.904C189.713 16.2587 190.754 15.7307 191.986 15.32C193.218 14.9093 194.553 14.704 195.99 14.704C198.747 14.704 200.757 15.3493 202.018 16.64C203.279 17.9307 203.91 19.9253 203.91 22.624V36H197.97V22.932C197.97 21.524 197.677 20.5267 197.09 19.94C196.533 19.3533 195.477 19.06 193.922 19.06C193.013 19.06 192.089 19.2653 191.15 19.676C190.241 20.0867 189.478 20.6 188.862 21.216V36H182.922ZM216.987 36.44C213.085 36.44 210.225 35.5013 208.407 33.624C206.588 31.7173 205.679 29.0333 205.679 25.572C205.679 22.1107 206.588 19.4413 208.407 17.564C210.255 15.6573 213.115 14.704 216.987 14.704C220.888 14.704 223.748 15.6573 225.567 17.564C227.415 19.4413 228.339 22.1107 228.339 25.572C228.339 29.0333 227.429 31.7173 225.611 33.624C223.792 35.5013 220.917 36.44 216.987 36.44ZM216.987 31.38C218.893 31.38 220.257 30.9547 221.079 30.104C221.9 29.224 222.311 27.7133 222.311 25.572C222.311 23.4307 221.9 21.9347 221.079 21.084C220.257 20.204 218.893 19.764 216.987 19.764C215.109 19.764 213.76 20.204 212.939 21.084C212.117 21.9347 211.707 23.4307 211.707 25.572C211.707 27.7133 212.117 29.224 212.939 30.104C213.76 30.9547 215.109 31.38 216.987 31.38ZM239.241 36.44C236.836 36.44 235.046 35.8093 233.873 34.548C232.729 33.2867 232.157 31.5707 232.157 29.4V19.72H229.209V15.144H232.157V10.656L238.097 8.896V15.144H243.377L243.025 19.72H238.097V29.004C238.097 30.148 238.361 30.94 238.889 31.38C239.417 31.7907 240.238 31.996 241.353 31.996C242.174 31.996 243.025 31.8493 243.905 31.556V35.648C243.26 35.912 242.556 36.1027 241.793 36.22C241.03 36.3667 240.18 36.44 239.241 36.44Z" fill="white"/>
<path d="M252.721 36L263.457 7.664H266.537L277.229 36H274.765L271.641 27.728H258.353L255.229 36H252.721ZM258.881 25.748H271.069L264.953 9.6L258.881 25.748ZM279.948 36V7.664H282.368V36H279.948ZM301.379 36.44C297.977 36.44 295.234 36.0293 293.151 35.208V33.052C295.586 33.932 298.27 34.372 301.203 34.372C303.961 34.372 306.043 33.9467 307.451 33.096C308.859 32.2453 309.563 30.808 309.563 28.784C309.563 27.552 309.285 26.5547 308.727 25.792C308.17 25.0293 307.275 24.3987 306.043 23.9C304.841 23.372 303.213 22.888 301.159 22.448C298.989 21.9493 297.258 21.3773 295.967 20.732C294.706 20.0573 293.797 19.236 293.239 18.268C292.711 17.3 292.447 16.156 292.447 14.836C292.447 12.548 293.269 10.7147 294.911 9.336C296.583 7.928 299.15 7.224 302.611 7.224C304.195 7.224 305.677 7.34133 307.055 7.576C308.434 7.81067 309.49 8.04533 310.223 8.28V10.436C308.111 9.70267 305.735 9.336 303.095 9.336C300.426 9.336 298.373 9.776 296.935 10.656C295.527 11.5067 294.823 12.9 294.823 14.836C294.823 15.9213 295.058 16.816 295.527 17.52C296.026 18.1947 296.862 18.7667 298.035 19.236C299.209 19.7053 300.822 20.1893 302.875 20.688C305.193 21.216 306.997 21.8613 308.287 22.624C309.607 23.3573 310.546 24.2373 311.103 25.264C311.661 26.2613 311.939 27.4347 311.939 28.784C311.939 31.3067 311.045 33.2133 309.255 34.504C307.466 35.7947 304.841 36.44 301.379 36.44ZM321.263 36.44C319.415 36.44 317.992 35.9267 316.995 34.9C315.998 33.8733 315.499 32.436 315.499 30.588V17.168H312.243V15.144H315.499V9.688L317.919 8.896V15.144H323.947L323.815 17.168H317.919V30.5C317.919 31.8493 318.227 32.8467 318.843 33.492C319.488 34.1373 320.53 34.46 321.967 34.46C322.348 34.46 322.744 34.4307 323.155 34.372C323.595 34.284 324.064 34.152 324.563 33.976V35.912C323.595 36.264 322.495 36.44 321.263 36.44ZM333.563 36.44C331.07 36.44 329.178 35.736 327.887 34.328C326.596 32.92 325.951 30.9253 325.951 28.344V15.144H328.371V28.432C328.371 30.4267 328.87 31.9373 329.867 32.964C330.864 33.9613 332.434 34.46 334.575 34.46C336.042 34.46 337.376 34.1813 338.579 33.624C339.811 33.0373 340.867 32.304 341.747 31.424V15.144H344.167V36H342.011L341.791 33.448C340.764 34.3573 339.591 35.0907 338.271 35.648C336.951 36.176 335.382 36.44 333.563 36.44ZM356.197 36.44C354.379 36.44 352.765 36.0733 351.357 35.34C349.949 34.6067 348.849 33.4627 348.057 31.908C347.265 30.324 346.869 28.2707 346.869 25.748C346.869 21.964 347.72 19.1773 349.421 17.388C351.152 15.5987 353.484 14.704 356.417 14.704C357.855 14.704 359.131 14.88 360.245 15.232C361.389 15.5547 362.489 16.112 363.545 16.904V6.344H365.965V36H363.941L363.721 33.668C362.724 34.6067 361.624 35.3107 360.421 35.78C359.219 36.22 357.811 36.44 356.197 36.44ZM356.769 34.46C359.527 34.46 361.785 33.5213 363.545 31.644V19.016C362.724 18.312 361.8 17.7547 360.773 17.344C359.747 16.9333 358.515 16.728 357.077 16.728C354.496 16.728 352.545 17.4467 351.225 18.884C349.905 20.3213 349.245 22.6093 349.245 25.748C349.245 28.7107 349.861 30.9107 351.093 32.348C352.325 33.756 354.217 34.46 356.769 34.46ZM372.093 9.732V7.092H374.865V9.732H372.093ZM372.401 36V17.168H369.145L369.409 15.144H374.821V36H372.401ZM387.509 36.44C383.989 36.44 381.451 35.516 379.897 33.668C378.342 31.82 377.565 29.1213 377.565 25.572C377.565 22.052 378.357 19.368 379.941 17.52C381.525 15.6427 384.047 14.704 387.509 14.704C390.999 14.704 393.537 15.6427 395.121 17.52C396.705 19.368 397.497 22.052 397.497 25.572C397.497 29.1213 396.705 31.82 395.121 33.668C393.566 35.516 391.029 36.44 387.509 36.44ZM387.509 34.372C390.295 34.372 392.246 33.6533 393.361 32.216C394.505 30.7787 395.077 28.564 395.077 25.572C395.077 22.6093 394.505 20.4093 393.361 18.972C392.217 17.5347 390.266 16.816 387.509 16.816C384.751 16.816 382.801 17.5347 381.657 18.972C380.513 20.4093 379.941 22.6093 379.941 25.572C379.941 28.564 380.513 30.7787 381.657 32.216C382.801 33.6533 384.751 34.372 387.509 34.372Z" fill="#A3ADEC"/>
<circle cx="22" cy="22" r="22" fill="#6F7FE2"/>
<mask id="mask0_1264_16" style="mask-type:luminance" maskUnits="userSpaceOnUse" x="0" y="0" width="44" height="44">
<circle cx="22" cy="22" r="22" fill="white"/>
</mask>
<g mask="url(#mask0_1264_16)">
<circle opacity="0.2" cx="12" cy="12" r="25" fill="white"/>
<circle opacity="0.2" cx="3.5" cy="3.5" r="24.5" fill="white"/>
</g>
</svg>
