<svg width="309" height="44" viewBox="0 0 309 44" fill="none" xmlns="http://www.w3.org/2000/svg">
<path d="M50.142 33V11.104H53.95L60.886 25.282L67.788 11.104H71.596V33H67.924V17.122L62.008 29.226H59.764L53.814 17.122V33H50.142ZM81.5924 33.34C78.6911 33.34 76.5604 32.6147 75.2004 31.164C73.8631 29.7133 73.1944 27.6393 73.1944 24.942C73.1944 22.2447 73.8744 20.1707 75.2344 18.72C76.5944 17.2693 78.7138 16.544 81.5924 16.544C84.4938 16.544 86.6244 17.2693 87.9844 18.72C89.3444 20.1707 90.0244 22.2447 90.0244 24.942C90.0244 27.6393 89.3444 29.7133 87.9844 31.164C86.6471 32.6147 84.5164 33.34 81.5924 33.34ZM81.5924 30.212C83.2924 30.212 84.4938 29.804 85.1964 28.988C85.9218 28.1493 86.2844 26.8007 86.2844 24.942C86.2844 23.0833 85.9218 21.746 85.1964 20.93C84.4938 20.114 83.2924 19.706 81.5924 19.706C79.9151 19.706 78.7138 20.114 77.9884 20.93C77.2858 21.746 76.9344 23.0833 76.9344 24.942C76.9344 26.8007 77.2858 28.1493 77.9884 28.988C78.7138 29.804 79.9151 30.212 81.5924 30.212ZM99.3483 33.34C96.4469 33.34 94.3163 32.6147 92.9563 31.164C91.6189 29.7133 90.9503 27.6393 90.9503 24.942C90.9503 22.2447 91.6303 20.1707 92.9903 18.72C94.3503 17.2693 96.4696 16.544 99.3483 16.544C102.25 16.544 104.38 17.2693 105.74 18.72C107.1 20.1707 107.78 22.2447 107.78 24.942C107.78 27.6393 107.1 29.7133 105.74 31.164C104.403 32.6147 102.272 33.34 99.3483 33.34ZM99.3483 30.212C101.048 30.212 102.25 29.804 102.952 28.988C103.678 28.1493 104.04 26.8007 104.04 24.942C104.04 23.0833 103.678 21.746 102.952 20.93C102.25 20.114 101.048 19.706 99.3483 19.706C97.6709 19.706 96.4696 20.114 95.7443 20.93C95.0416 21.746 94.6903 23.0833 94.6903 24.942C94.6903 26.8007 95.0416 28.1493 95.7443 28.988C96.4696 29.804 97.6709 30.212 99.3483 30.212ZM109.386 33V16.884H112.786L112.956 18.584C113.681 18.0173 114.543 17.5413 115.54 17.156C116.56 16.748 117.682 16.544 118.906 16.544C120.991 16.544 122.51 17.0313 123.462 18.006C124.414 18.9807 124.89 20.4993 124.89 22.562V33H121.218V22.732C121.218 21.4853 120.957 20.6127 120.436 20.114C119.937 19.6153 118.985 19.366 117.58 19.366C116.741 19.366 115.914 19.536 115.098 19.876C114.305 20.216 113.636 20.658 113.092 21.202V33H109.386ZM132.414 33.34C131.304 33.34 130.238 33.2607 129.218 33.102C128.221 32.9433 127.394 32.7507 126.736 32.524V29.396C127.507 29.6907 128.357 29.9173 129.286 30.076C130.216 30.2347 131.1 30.314 131.938 30.314C133.208 30.314 134.114 30.2007 134.658 29.974C135.202 29.7473 135.474 29.3053 135.474 28.648C135.474 28.172 135.304 27.798 134.964 27.526C134.647 27.254 134.16 27.0047 133.502 26.778C132.868 26.5513 132.052 26.2793 131.054 25.962C130.102 25.6447 129.275 25.3047 128.572 24.942C127.87 24.5567 127.326 24.0693 126.94 23.48C126.555 22.8907 126.362 22.12 126.362 21.168C126.362 19.6947 126.895 18.5613 127.96 17.768C129.026 16.952 130.737 16.544 133.094 16.544C134.024 16.544 134.908 16.612 135.746 16.748C136.585 16.884 137.299 17.054 137.888 17.258V20.352C137.254 20.1027 136.551 19.91 135.78 19.774C135.032 19.638 134.33 19.57 133.672 19.57C132.494 19.57 131.598 19.672 130.986 19.876C130.397 20.08 130.102 20.488 130.102 21.1C130.102 21.7347 130.408 22.188 131.02 22.46C131.655 22.7093 132.664 23.0607 134.046 23.514C135.316 23.8993 136.324 24.3073 137.072 24.738C137.82 25.1687 138.353 25.69 138.67 26.302C139.01 26.8913 139.18 27.662 139.18 28.614C139.18 30.2007 138.602 31.3907 137.446 32.184C136.29 32.9547 134.613 33.34 132.414 33.34ZM140.814 33V10.084H144.52V18.448C145.223 17.8813 146.061 17.428 147.036 17.088C148.011 16.7253 149.11 16.544 150.334 16.544C152.374 16.544 153.881 17.0313 154.856 18.006C155.831 18.9807 156.318 20.4993 156.318 22.562V33H152.646V22.732C152.646 21.4853 152.374 20.6127 151.83 20.114C151.309 19.6153 150.391 19.366 149.076 19.366C148.26 19.366 147.433 19.5473 146.594 19.91C145.755 20.25 145.064 20.7033 144.52 21.27V33H140.814ZM165.856 33.34C162.955 33.34 160.824 32.6147 159.464 31.164C158.127 29.7133 157.458 27.6393 157.458 24.942C157.458 22.2447 158.138 20.1707 159.498 18.72C160.858 17.2693 162.977 16.544 165.856 16.544C168.757 16.544 170.888 17.2693 172.248 18.72C173.608 20.1707 174.288 22.2447 174.288 24.942C174.288 27.6393 173.608 29.7133 172.248 31.164C170.911 32.6147 168.78 33.34 165.856 33.34ZM165.856 30.212C167.556 30.212 168.757 29.804 169.46 28.988C170.185 28.1493 170.548 26.8007 170.548 24.942C170.548 23.0833 170.185 21.746 169.46 20.93C168.757 20.114 167.556 19.706 165.856 19.706C164.179 19.706 162.977 20.114 162.252 20.93C161.549 21.746 161.198 23.0833 161.198 24.942C161.198 26.8007 161.549 28.1493 162.252 28.988C162.977 29.804 164.179 30.212 165.856 30.212ZM182.048 33.34C180.325 33.34 179.033 32.8867 178.172 31.98C177.333 31.0507 176.914 29.7927 176.914 28.206V19.774H174.534V16.884H176.914V13.178L180.586 12.056V16.884H184.87L184.632 19.774H180.586V28.002C180.586 28.9313 180.801 29.5887 181.232 29.974C181.663 30.3367 182.365 30.518 183.34 30.518C183.952 30.518 184.598 30.4047 185.278 30.178V32.796C184.394 33.1587 183.317 33.34 182.048 33.34Z" fill="white"/>
<path d="M191.843 33L200.139 11.104H202.519L210.781 33H208.877L206.463 26.608H196.195L193.781 33H191.843ZM196.603 25.078H206.021L201.295 12.6L196.603 25.078ZM213.2 33V11.104H215.07V33H213.2ZM230.397 33.34C227.768 33.34 225.648 33.0227 224.039 32.388V30.722C225.92 31.402 227.994 31.742 230.261 31.742C232.392 31.742 234.001 31.4133 235.089 30.756C236.177 30.0987 236.721 28.988 236.721 27.424C236.721 26.472 236.506 25.7013 236.075 25.112C235.644 24.5227 234.953 24.0353 234.001 23.65C233.072 23.242 231.814 22.868 230.227 22.528C228.55 22.1427 227.212 21.7007 226.215 21.202C225.24 20.6807 224.538 20.046 224.107 19.298C223.699 18.55 223.495 17.666 223.495 16.646C223.495 14.878 224.13 13.4613 225.399 12.396C226.691 11.308 228.674 10.764 231.349 10.764C232.573 10.764 233.718 10.8547 234.783 11.036C235.848 11.2173 236.664 11.3987 237.231 11.58V13.246C235.599 12.6793 233.763 12.396 231.723 12.396C229.66 12.396 228.074 12.736 226.963 13.416C225.875 14.0733 225.331 15.15 225.331 16.646C225.331 17.4847 225.512 18.176 225.875 18.72C226.26 19.2413 226.906 19.6833 227.813 20.046C228.72 20.4087 229.966 20.7827 231.553 21.168C233.344 21.576 234.738 22.0747 235.735 22.664C236.755 23.2307 237.48 23.9107 237.911 24.704C238.342 25.4747 238.557 26.3813 238.557 27.424C238.557 29.3733 237.866 30.8467 236.483 31.844C235.1 32.8413 233.072 33.34 230.397 33.34ZM246.08 33.34C244.652 33.34 243.553 32.9433 242.782 32.15C242.011 31.3567 241.626 30.246 241.626 28.818V18.448H239.11V16.884H241.626V12.668L243.496 12.056V16.884H248.154L248.052 18.448H243.496V28.75C243.496 29.7927 243.734 30.5633 244.21 31.062C244.709 31.5607 245.513 31.81 246.624 31.81C246.919 31.81 247.225 31.7873 247.542 31.742C247.882 31.674 248.245 31.572 248.63 31.436V32.932C247.882 33.204 247.032 33.34 246.08 33.34ZM255.903 33.34C253.976 33.34 252.514 32.796 251.517 31.708C250.519 30.62 250.021 29.0787 250.021 27.084V16.884H251.891V27.152C251.891 28.6933 252.276 29.8607 253.047 30.654C253.817 31.4247 255.03 31.81 256.685 31.81C257.818 31.81 258.849 31.5947 259.779 31.164C260.731 30.7107 261.547 30.144 262.227 29.464V16.884H264.097V33H262.431L262.261 31.028C261.467 31.7307 260.561 32.2973 259.541 32.728C258.521 33.136 257.308 33.34 255.903 33.34ZM273.711 33.34C272.305 33.34 271.059 33.0567 269.971 32.49C268.883 31.9233 268.033 31.0393 267.421 29.838C266.809 28.614 266.503 27.0273 266.503 25.078C266.503 22.154 267.16 20.0007 268.475 18.618C269.812 17.2353 271.614 16.544 273.881 16.544C274.991 16.544 275.977 16.68 276.839 16.952C277.723 17.2013 278.573 17.632 279.389 18.244V10.084H281.259V33H279.695L279.525 31.198C278.754 31.9233 277.904 32.4673 276.975 32.83C276.045 33.17 274.957 33.34 273.711 33.34ZM274.153 31.81C276.283 31.81 278.029 31.0847 279.389 29.634V19.876C278.754 19.332 278.04 18.9013 277.247 18.584C276.453 18.2667 275.501 18.108 274.391 18.108C272.396 18.108 270.889 18.6633 269.869 19.774C268.849 20.8847 268.339 22.6527 268.339 25.078C268.339 27.3673 268.815 29.0673 269.767 30.178C270.719 31.266 272.181 31.81 274.153 31.81ZM286.312 12.702V10.662H288.454V12.702H286.312ZM286.55 33V18.448H284.034L284.238 16.884H288.42V33H286.55ZM298.542 33.34C295.822 33.34 293.862 32.626 292.66 31.198C291.459 29.77 290.858 27.6847 290.858 24.942C290.858 22.222 291.47 20.148 292.694 18.72C293.918 17.2693 295.868 16.544 298.542 16.544C301.24 16.544 303.2 17.2693 304.424 18.72C305.648 20.148 306.26 22.222 306.26 24.942C306.26 27.6847 305.648 29.77 304.424 31.198C303.223 32.626 301.262 33.34 298.542 33.34ZM298.542 31.742C300.696 31.742 302.203 31.1867 303.064 30.076C303.948 28.9653 304.39 27.254 304.39 24.942C304.39 22.6527 303.948 20.9527 303.064 19.842C302.18 18.7313 300.673 18.176 298.542 18.176C296.412 18.176 294.904 18.7313 294.02 19.842C293.136 20.9527 292.694 22.6527 292.694 24.942C292.694 27.254 293.136 28.9653 294.02 30.076C294.904 31.1867 296.412 31.742 298.542 31.742Z" fill="#A3ADEC"/>
<circle cx="18" cy="22" r="18" fill="#6F7FE2"/>
<mask id="mask0_1264_16" style="mask-type:luminance" maskUnits="userSpaceOnUse" x="0" y="4" width="36" height="36">
<circle cx="18" cy="22" r="18" fill="white"/>
</mask>
<g mask="url(#mask0_1264_16)">
<circle opacity="0.2" cx="9.81818" cy="13.8181" r="20.4545" fill="white"/>
<circle opacity="0.2" cx="2.8636" cy="6.86357" r="20.0455" fill="white"/>
</g>
</svg>
