<svg width="264" height="40" viewBox="0 0 264 40" fill="none" xmlns="http://www.w3.org/2000/svg">
<path d="M39.89 29V9.68H43.25L49.37 22.19L55.46 9.68H58.82V29H55.58V14.99L50.36 25.67H48.38L43.13 14.99V29H39.89ZM67.4051 29.3C64.8451 29.3 62.9651 28.66 61.7651 27.38C60.5851 26.1 59.9951 24.27 59.9951 21.89C59.9951 19.51 60.5951 17.68 61.7951 16.4C62.9951 15.12 64.8651 14.48 67.4051 14.48C69.9651 14.48 71.8451 15.12 73.0451 16.4C74.2451 17.68 74.8451 19.51 74.8451 21.89C74.8451 24.27 74.2451 26.1 73.0451 27.38C71.8651 28.66 69.9851 29.3 67.4051 29.3ZM67.4051 26.54C68.9051 26.54 69.9651 26.18 70.5851 25.46C71.2251 24.72 71.5451 23.53 71.5451 21.89C71.5451 20.25 71.2251 19.07 70.5851 18.35C69.9651 17.63 68.9051 17.27 67.4051 17.27C65.9251 17.27 64.8651 17.63 64.2251 18.35C63.6051 19.07 63.2951 20.25 63.2951 21.89C63.2951 23.53 63.6051 24.72 64.2251 25.46C64.8651 26.18 65.9251 26.54 67.4051 26.54ZM82.8367 29.3C80.2767 29.3 78.3967 28.66 77.1967 27.38C76.0167 26.1 75.4267 24.27 75.4267 21.89C75.4267 19.51 76.0267 17.68 77.2267 16.4C78.4267 15.12 80.2967 14.48 82.8367 14.48C85.3967 14.48 87.2767 15.12 88.4767 16.4C89.6767 17.68 90.2767 19.51 90.2767 21.89C90.2767 24.27 89.6767 26.1 88.4767 27.38C87.2967 28.66 85.4167 29.3 82.8367 29.3ZM82.8367 26.54C84.3367 26.54 85.3967 26.18 86.0167 25.46C86.6567 24.72 86.9767 23.53 86.9767 21.89C86.9767 20.25 86.6567 19.07 86.0167 18.35C85.3967 17.63 84.3367 17.27 82.8367 17.27C81.3567 17.27 80.2967 17.63 79.6567 18.35C79.0367 19.07 78.7267 20.25 78.7267 21.89C78.7267 23.53 79.0367 24.72 79.6567 25.46C80.2967 26.18 81.3567 26.54 82.8367 26.54ZM91.4584 29V14.78H94.4584L94.6084 16.28C95.2484 15.78 96.0084 15.36 96.8884 15.02C97.7884 14.66 98.7784 14.48 99.8584 14.48C101.698 14.48 103.038 14.91 103.878 15.77C104.718 16.63 105.138 17.97 105.138 19.79V29H101.898V19.94C101.898 18.84 101.668 18.07 101.208 17.63C100.768 17.19 99.9284 16.97 98.6884 16.97C97.9484 16.97 97.2184 17.12 96.4984 17.42C95.7984 17.72 95.2084 18.11 94.7284 18.59V29H91.4584ZM111.542 29.3C110.562 29.3 109.622 29.23 108.722 29.09C107.842 28.95 107.112 28.78 106.532 28.58V25.82C107.212 26.08 107.962 26.28 108.782 26.42C109.602 26.56 110.382 26.63 111.122 26.63C112.242 26.63 113.042 26.53 113.522 26.33C114.002 26.13 114.242 25.74 114.242 25.16C114.242 24.74 114.092 24.41 113.792 24.17C113.512 23.93 113.082 23.71 112.502 23.51C111.942 23.31 111.222 23.07 110.342 22.79C109.502 22.51 108.772 22.21 108.152 21.89C107.532 21.55 107.052 21.12 106.712 20.6C106.372 20.08 106.202 19.4 106.202 18.56C106.202 17.26 106.672 16.26 107.612 15.56C108.552 14.84 110.062 14.48 112.142 14.48C112.962 14.48 113.742 14.54 114.482 14.66C115.222 14.78 115.852 14.93 116.372 15.11V17.84C115.812 17.62 115.192 17.45 114.512 17.33C113.852 17.21 113.232 17.15 112.652 17.15C111.612 17.15 110.822 17.24 110.282 17.42C109.762 17.6 109.502 17.96 109.502 18.5C109.502 19.06 109.772 19.46 110.312 19.7C110.872 19.92 111.762 20.23 112.982 20.63C114.102 20.97 114.992 21.33 115.652 21.71C116.312 22.09 116.782 22.55 117.062 23.09C117.362 23.61 117.512 24.29 117.512 25.13C117.512 26.53 117.002 27.58 115.982 28.28C114.962 28.96 113.482 29.3 111.542 29.3ZM118.718 29V8.78H121.988V16.16C122.608 15.66 123.348 15.26 124.208 14.96C125.068 14.64 126.038 14.48 127.118 14.48C128.918 14.48 130.248 14.91 131.108 15.77C131.968 16.63 132.398 17.97 132.398 19.79V29H129.158V19.94C129.158 18.84 128.918 18.07 128.438 17.63C127.978 17.19 127.168 16.97 126.008 16.97C125.288 16.97 124.558 17.13 123.818 17.45C123.078 17.75 122.468 18.15 121.988 18.65V29H118.718ZM140.579 29.3C138.019 29.3 136.139 28.66 134.939 27.38C133.759 26.1 133.169 24.27 133.169 21.89C133.169 19.51 133.769 17.68 134.969 16.4C136.169 15.12 138.039 14.48 140.579 14.48C143.139 14.48 145.019 15.12 146.219 16.4C147.419 17.68 148.019 19.51 148.019 21.89C148.019 24.27 147.419 26.1 146.219 27.38C145.039 28.66 143.159 29.3 140.579 29.3ZM140.579 26.54C142.079 26.54 143.139 26.18 143.759 25.46C144.399 24.72 144.719 23.53 144.719 21.89C144.719 20.25 144.399 19.07 143.759 18.35C143.139 17.63 142.079 17.27 140.579 17.27C139.099 17.27 138.039 17.63 137.399 18.35C136.779 19.07 136.469 20.25 136.469 21.89C136.469 23.53 136.779 24.72 137.399 25.46C138.039 26.18 139.099 26.54 140.579 26.54ZM154.631 29.3C153.111 29.3 151.971 28.9 151.211 28.1C150.471 27.28 150.101 26.17 150.101 24.77V17.33H148.001V14.78H150.101V11.51L153.341 10.52V14.78H157.121L156.911 17.33H153.341V24.59C153.341 25.41 153.531 25.99 153.911 26.33C154.291 26.65 154.911 26.81 155.771 26.81C156.311 26.81 156.881 26.71 157.481 26.51V28.82C156.701 29.14 155.751 29.3 154.631 29.3ZM162.802 29L170.122 9.68H172.222L179.512 29H177.832L175.702 23.36H166.642L164.512 29H162.802ZM167.002 22.01H175.312L171.142 11L167.002 22.01ZM181.412 29V9.68H183.062V29H181.412ZM196.115 29.3C193.795 29.3 191.925 29.02 190.505 28.46V26.99C192.165 27.59 193.995 27.89 195.995 27.89C197.875 27.89 199.295 27.6 200.255 27.02C201.215 26.44 201.695 25.46 201.695 24.08C201.695 23.24 201.505 22.56 201.125 22.04C200.745 21.52 200.135 21.09 199.295 20.75C198.475 20.39 197.365 20.06 195.965 19.76C194.485 19.42 193.305 19.03 192.425 18.59C191.565 18.13 190.945 17.57 190.565 16.91C190.205 16.25 190.025 15.47 190.025 14.57C190.025 13.01 190.585 11.76 191.705 10.82C192.845 9.86 194.595 9.38 196.955 9.38C198.035 9.38 199.045 9.46 199.985 9.62C200.925 9.78 201.645 9.94 202.145 10.1V11.57C200.705 11.07 199.085 10.82 197.285 10.82C195.465 10.82 194.065 11.12 193.085 11.72C192.125 12.3 191.645 13.25 191.645 14.57C191.645 15.31 191.805 15.92 192.125 16.4C192.465 16.86 193.035 17.25 193.835 17.57C194.635 17.89 195.735 18.22 197.135 18.56C198.715 18.92 199.945 19.36 200.825 19.88C201.725 20.38 202.365 20.98 202.745 21.68C203.125 22.36 203.315 23.16 203.315 24.08C203.315 25.8 202.705 27.1 201.485 27.98C200.265 28.86 198.475 29.3 196.115 29.3ZM209.718 29.3C208.458 29.3 207.488 28.95 206.808 28.25C206.128 27.55 205.788 26.57 205.788 25.31V16.16H203.568V14.78H205.788V11.06L207.438 10.52V14.78H211.548L211.458 16.16H207.438V25.25C207.438 26.17 207.648 26.85 208.068 27.29C208.508 27.73 209.218 27.95 210.198 27.95C210.458 27.95 210.728 27.93 211.008 27.89C211.308 27.83 211.628 27.74 211.968 27.62V28.94C211.308 29.18 210.558 29.3 209.718 29.3ZM218.149 29.3C216.449 29.3 215.159 28.82 214.279 27.86C213.399 26.9 212.959 25.54 212.959 23.78V14.78H214.609V23.84C214.609 25.2 214.949 26.23 215.629 26.93C216.309 27.61 217.379 27.95 218.839 27.95C219.839 27.95 220.749 27.76 221.569 27.38C222.409 26.98 223.129 26.48 223.729 25.88V14.78H225.379V29H223.909L223.759 27.26C223.059 27.88 222.259 28.38 221.359 28.76C220.459 29.12 219.389 29.3 218.149 29.3ZM233.627 29.3C232.387 29.3 231.287 29.05 230.327 28.55C229.367 28.05 228.617 27.27 228.077 26.21C227.537 25.13 227.267 23.73 227.267 22.01C227.267 19.43 227.847 17.53 229.007 16.31C230.187 15.09 231.777 14.48 233.777 14.48C234.757 14.48 235.627 14.6 236.387 14.84C237.167 15.06 237.917 15.44 238.637 15.98V8.78H240.287V29H238.907L238.757 27.41C238.077 28.05 237.327 28.53 236.507 28.85C235.687 29.15 234.727 29.3 233.627 29.3ZM234.017 27.95C235.897 27.95 237.437 27.31 238.637 26.03V17.42C238.077 16.94 237.447 16.56 236.747 16.28C236.047 16 235.207 15.86 234.227 15.86C232.467 15.86 231.137 16.35 230.237 17.33C229.337 18.31 228.887 19.87 228.887 22.01C228.887 24.03 229.307 25.53 230.147 26.51C230.987 27.47 232.277 27.95 234.017 27.95ZM244.511 11.09V9.29H246.401V11.09H244.511ZM244.721 29V16.16H242.501L242.681 14.78H246.371V29H244.721ZM255.067 29.3C252.667 29.3 250.937 28.67 249.877 27.41C248.817 26.15 248.287 24.31 248.287 21.89C248.287 19.49 248.827 17.66 249.907 16.4C250.987 15.12 252.707 14.48 255.067 14.48C257.447 14.48 259.177 15.12 260.257 16.4C261.337 17.66 261.877 19.49 261.877 21.89C261.877 24.31 261.337 26.15 260.257 27.41C259.197 28.67 257.467 29.3 255.067 29.3ZM255.067 27.89C256.967 27.89 258.297 27.4 259.057 26.42C259.837 25.44 260.227 23.93 260.227 21.89C260.227 19.87 259.837 18.37 259.057 17.39C258.277 16.41 256.947 15.92 255.067 15.92C253.187 15.92 251.857 16.41 251.077 17.39C250.297 18.37 249.907 19.87 249.907 21.89C249.907 23.93 250.297 25.44 251.077 26.42C251.857 27.4 253.187 27.89 255.067 27.89Z" fill="#0E103D"/>
<circle cx="15" cy="20" r="15" fill="#6F7FE2"/>
<mask id="mask0_1265_43" style="mask-type:luminance" maskUnits="userSpaceOnUse" x="0" y="5" width="30" height="30">
<circle cx="15" cy="20" r="15" fill="white"/>
</mask>
<g mask="url(#mask0_1265_43)">
<circle opacity="0.2" cx="8.18182" cy="13.1817" r="17.0455" fill="white"/>
<circle opacity="0.2" cx="2.3864" cy="7.38628" r="16.7045" fill="white"/>
</g>
</svg>
