<svg width="336" height="44" viewBox="0 0 336 44" fill="none" xmlns="http://www.w3.org/2000/svg">
<path d="M58.052 34V10.816H62.948L69.752 24.748L76.556 10.816H81.416V34H76.556V18.916L71.156 30.004H68.348L62.912 18.916V34H58.052ZM92.541 34.36C89.349 34.36 87.009 33.592 85.521 32.056C84.033 30.496 83.289 28.3 83.289 25.468C83.289 22.636 84.033 20.452 85.521 18.916C87.033 17.356 89.373 16.576 92.541 16.576C95.733 16.576 98.073 17.356 99.561 18.916C101.073 20.452 101.829 22.636 101.829 25.468C101.829 28.3 101.085 30.496 99.597 32.056C98.109 33.592 95.757 34.36 92.541 34.36ZM92.541 30.22C94.101 30.22 95.217 29.872 95.889 29.176C96.561 28.456 96.897 27.22 96.897 25.468C96.897 23.716 96.561 22.492 95.889 21.796C95.217 21.076 94.101 20.716 92.541 20.716C91.005 20.716 89.901 21.076 89.229 21.796C88.557 22.492 88.221 23.716 88.221 25.468C88.221 27.22 88.557 28.456 89.229 29.176C89.901 29.872 91.005 30.22 92.541 30.22ZM112.24 34.36C109.048 34.36 106.708 33.592 105.22 32.056C103.732 30.496 102.988 28.3 102.988 25.468C102.988 22.636 103.732 20.452 105.22 18.916C106.732 17.356 109.072 16.576 112.24 16.576C115.432 16.576 117.772 17.356 119.26 18.916C120.772 20.452 121.528 22.636 121.528 25.468C121.528 28.3 120.784 30.496 119.296 32.056C117.808 33.592 115.456 34.36 112.24 34.36ZM112.24 30.22C113.8 30.22 114.916 29.872 115.588 29.176C116.26 28.456 116.596 27.22 116.596 25.468C116.596 23.716 116.26 22.492 115.588 21.796C114.916 21.076 113.8 20.716 112.24 20.716C110.704 20.716 109.6 21.076 108.928 21.796C108.256 22.492 107.92 23.716 107.92 25.468C107.92 27.22 108.256 28.456 108.928 29.176C109.6 29.872 110.704 30.22 112.24 30.22ZM123.407 34V16.936H127.907L128.087 18.556C128.783 18.028 129.659 17.572 130.715 17.188C131.795 16.78 132.923 16.576 134.099 16.576C136.355 16.576 137.999 17.104 139.031 18.16C140.063 19.216 140.579 20.848 140.579 23.056V34H135.719V23.308C135.719 22.156 135.479 21.34 134.999 20.86C134.543 20.38 133.679 20.14 132.407 20.14C131.663 20.14 130.907 20.308 130.139 20.644C129.395 20.98 128.771 21.4 128.267 21.904V34H123.407ZM149.048 34.36C147.776 34.36 146.564 34.264 145.412 34.072C144.26 33.904 143.336 33.688 142.64 33.424V29.392C143.48 29.728 144.428 29.992 145.484 30.184C146.54 30.352 147.512 30.436 148.4 30.436C149.6 30.436 150.44 30.364 150.92 30.22C151.424 30.076 151.676 29.752 151.676 29.248C151.676 28.672 151.292 28.252 150.524 27.988C149.78 27.724 148.664 27.352 147.176 26.872C145.616 26.344 144.416 25.708 143.576 24.964C142.736 24.22 142.316 23.116 142.316 21.652C142.316 20.02 142.904 18.772 144.08 17.908C145.28 17.02 147.2 16.576 149.84 16.576C150.896 16.576 151.892 16.66 152.828 16.828C153.764 16.972 154.556 17.152 155.204 17.368V21.364C154.556 21.052 153.812 20.824 152.972 20.68C152.132 20.512 151.352 20.428 150.632 20.428C149.6 20.428 148.772 20.5 148.148 20.644C147.548 20.788 147.248 21.1 147.248 21.58C147.248 22.108 147.572 22.48 148.22 22.696C148.892 22.912 149.924 23.236 151.316 23.668C152.684 24.076 153.752 24.52 154.52 25C155.288 25.48 155.828 26.056 156.14 26.728C156.452 27.376 156.608 28.192 156.608 29.176C156.608 32.632 154.088 34.36 149.048 34.36ZM158.482 34V9.736H163.342V18.376C164.038 17.848 164.89 17.416 165.898 17.08C166.906 16.744 167.998 16.576 169.174 16.576C171.43 16.576 173.074 17.104 174.106 18.16C175.138 19.216 175.654 20.848 175.654 23.056V34H170.794V23.308C170.794 22.156 170.554 21.34 170.074 20.86C169.618 20.38 168.754 20.14 167.482 20.14C166.738 20.14 165.982 20.308 165.214 20.644C164.47 20.98 163.846 21.4 163.342 21.904V34H158.482ZM186.08 34.36C182.888 34.36 180.548 33.592 179.06 32.056C177.572 30.496 176.828 28.3 176.828 25.468C176.828 22.636 177.572 20.452 179.06 18.916C180.572 17.356 182.912 16.576 186.08 16.576C189.272 16.576 191.612 17.356 193.1 18.916C194.612 20.452 195.368 22.636 195.368 25.468C195.368 28.3 194.624 30.496 193.136 32.056C191.648 33.592 189.296 34.36 186.08 34.36ZM186.08 30.22C187.64 30.22 188.756 29.872 189.428 29.176C190.1 28.456 190.436 27.22 190.436 25.468C190.436 23.716 190.1 22.492 189.428 21.796C188.756 21.076 187.64 20.716 186.08 20.716C184.544 20.716 183.44 21.076 182.768 21.796C182.096 22.492 181.76 23.716 181.76 25.468C181.76 27.22 182.096 28.456 182.768 29.176C183.44 29.872 184.544 30.22 186.08 30.22ZM204.015 34.36C202.047 34.36 200.583 33.844 199.623 32.812C198.687 31.78 198.219 30.376 198.219 28.6V20.68H195.807V16.936H198.219V13.264L203.079 11.824V16.936H207.399L207.111 20.68H203.079V28.276C203.079 29.212 203.295 29.86 203.727 30.22C204.159 30.556 204.831 30.724 205.743 30.724C206.415 30.724 207.111 30.604 207.831 30.364V33.712C207.303 33.928 206.727 34.084 206.103 34.18C205.479 34.3 204.783 34.36 204.015 34.36ZM219.699 34L228.483 10.816H231.003L239.751 34H237.735L235.179 27.232H224.307L221.751 34H219.699ZM224.739 25.612H234.711L229.707 12.4L224.739 25.612ZM241.43 34V10.816H243.41V34H241.43ZM257.874 34.36C255.09 34.36 252.846 34.024 251.142 33.352V31.588C253.134 32.308 255.33 32.668 257.73 32.668C259.986 32.668 261.69 32.32 262.842 31.624C263.994 30.928 264.57 29.752 264.57 28.096C264.57 27.088 264.342 26.272 263.886 25.648C263.43 25.024 262.698 24.508 261.69 24.1C260.706 23.668 259.374 23.272 257.694 22.912C255.918 22.504 254.502 22.036 253.446 21.508C252.414 20.956 251.67 20.284 251.214 19.492C250.782 18.7 250.566 17.764 250.566 16.684C250.566 14.812 251.238 13.312 252.582 12.184C253.95 11.032 256.05 10.456 258.882 10.456C260.178 10.456 261.39 10.552 262.518 10.744C263.646 10.936 264.51 11.128 265.11 11.32V13.084C263.382 12.484 261.438 12.184 259.278 12.184C257.094 12.184 255.414 12.544 254.238 13.264C253.086 13.96 252.51 15.1 252.51 16.684C252.51 17.572 252.702 18.304 253.086 18.88C253.494 19.432 254.178 19.9 255.138 20.284C256.098 20.668 257.418 21.064 259.098 21.472C260.994 21.904 262.47 22.432 263.526 23.056C264.606 23.656 265.374 24.376 265.83 25.216C266.286 26.032 266.514 26.992 266.514 28.096C266.514 30.16 265.782 31.72 264.318 32.776C262.854 33.832 260.706 34.36 257.874 34.36ZM273.597 34.36C272.085 34.36 270.921 33.94 270.105 33.1C269.289 32.26 268.881 31.084 268.881 29.572V18.592H266.217V16.936H268.881V12.472L270.861 11.824V16.936H275.793L275.685 18.592H270.861V29.5C270.861 30.604 271.113 31.42 271.617 31.948C272.145 32.476 272.997 32.74 274.173 32.74C274.485 32.74 274.809 32.716 275.145 32.668C275.505 32.596 275.889 32.488 276.297 32.344V33.928C275.505 34.216 274.605 34.36 273.597 34.36ZM283.115 34.36C281.075 34.36 279.527 33.784 278.471 32.632C277.415 31.48 276.887 29.848 276.887 27.736V16.936H278.867V27.808C278.867 29.44 279.275 30.676 280.091 31.516C280.907 32.332 282.191 32.74 283.943 32.74C285.143 32.74 286.235 32.512 287.219 32.056C288.227 31.576 289.091 30.976 289.811 30.256V16.936H291.791V34H290.027L289.847 31.912C289.007 32.656 288.047 33.256 286.967 33.712C285.887 34.144 284.603 34.36 283.115 34.36ZM301.089 34.36C299.601 34.36 298.281 34.06 297.129 33.46C295.977 32.86 295.077 31.924 294.429 30.652C293.781 29.356 293.457 27.676 293.457 25.612C293.457 22.516 294.153 20.236 295.545 18.772C296.961 17.308 298.869 16.576 301.269 16.576C302.445 16.576 303.489 16.72 304.401 17.008C305.337 17.272 306.237 17.728 307.101 18.376V9.736H309.081V34H307.425L307.245 32.092C306.429 32.86 305.529 33.436 304.545 33.82C303.561 34.18 302.409 34.36 301.089 34.36ZM301.557 32.74C303.813 32.74 305.661 31.972 307.101 30.436V20.104C306.429 19.528 305.673 19.072 304.833 18.736C303.993 18.4 302.985 18.232 301.809 18.232C299.697 18.232 298.101 18.82 297.021 19.996C295.941 21.172 295.401 23.044 295.401 25.612C295.401 28.036 295.905 29.836 296.913 31.012C297.921 32.164 299.469 32.74 301.557 32.74ZM313.549 12.508V10.348H315.817V12.508H313.549ZM313.801 34V18.592H311.137L311.353 16.936H315.781V34H313.801ZM325.616 34.36C322.736 34.36 320.66 33.604 319.388 32.092C318.116 30.58 317.48 28.372 317.48 25.468C317.48 22.588 318.128 20.392 319.424 18.88C320.72 17.344 322.784 16.576 325.616 16.576C328.472 16.576 330.548 17.344 331.844 18.88C333.14 20.392 333.788 22.588 333.788 25.468C333.788 28.372 333.14 30.58 331.844 32.092C330.572 33.604 328.496 34.36 325.616 34.36ZM325.616 32.668C327.896 32.668 329.492 32.08 330.404 30.904C331.34 29.728 331.808 27.916 331.808 25.468C331.808 23.044 331.34 21.244 330.404 20.068C329.468 18.892 327.872 18.304 325.616 18.304C323.36 18.304 321.764 18.892 320.828 20.068C319.892 21.244 319.424 23.044 319.424 25.468C319.424 27.916 319.892 29.728 320.828 30.904C321.764 32.08 323.36 32.668 325.616 32.668Z" fill="#0E103D"/>
<circle cx="22" cy="22" r="22" fill="#6F7FE2"/>
<mask id="mask0_156_109" style="mask-type:luminance" maskUnits="userSpaceOnUse" x="0" y="0" width="44" height="44">
<circle cx="22" cy="22" r="22" fill="white"/>
</mask>
<g mask="url(#mask0_156_109)">
<circle opacity="0.2" cx="12" cy="12" r="25" fill="white"/>
<circle opacity="0.2" cx="3.50002" cy="3.50006" r="24.5" fill="white"/>
</g>
</svg>
