<svg width="288" height="40" viewBox="0 0 288 40" fill="none" xmlns="http://www.w3.org/2000/svg">
<path d="M39.89 29V9.68H43.25L49.37 22.19L55.46 9.68H58.82V29H55.58V14.99L50.36 25.67H48.38L43.13 14.99V29H39.89ZM67.4051 29.3C64.8451 29.3 62.9651 28.66 61.7651 27.38C60.5851 26.1 59.9951 24.27 59.9951 21.89C59.9951 19.51 60.5951 17.68 61.7951 16.4C62.9951 15.12 64.8651 14.48 67.4051 14.48C69.9651 14.48 71.8451 15.12 73.0451 16.4C74.2451 17.68 74.8451 19.51 74.8451 21.89C74.8451 24.27 74.2451 26.1 73.0451 27.38C71.8651 28.66 69.9851 29.3 67.4051 29.3ZM67.4051 26.54C68.9051 26.54 69.9651 26.18 70.5851 25.46C71.2251 24.72 71.5451 23.53 71.5451 21.89C71.5451 20.25 71.2251 19.07 70.5851 18.35C69.9651 17.63 68.9051 17.27 67.4051 17.27C65.9251 17.27 64.8651 17.63 64.2251 18.35C63.6051 19.07 63.2951 20.25 63.2951 21.89C63.2951 23.53 63.6051 24.72 64.2251 25.46C64.8651 26.18 65.9251 26.54 67.4051 26.54ZM82.8367 29.3C80.2767 29.3 78.3967 28.66 77.1967 27.38C76.0167 26.1 75.4267 24.27 75.4267 21.89C75.4267 19.51 76.0267 17.68 77.2267 16.4C78.4267 15.12 80.2967 14.48 82.8367 14.48C85.3967 14.48 87.2767 15.12 88.4767 16.4C89.6767 17.68 90.2767 19.51 90.2767 21.89C90.2767 24.27 89.6767 26.1 88.4767 27.38C87.2967 28.66 85.4167 29.3 82.8367 29.3ZM82.8367 26.54C84.3367 26.54 85.3967 26.18 86.0167 25.46C86.6567 24.72 86.9767 23.53 86.9767 21.89C86.9767 20.25 86.6567 19.07 86.0167 18.35C85.3967 17.63 84.3367 17.27 82.8367 17.27C81.3567 17.27 80.2967 17.63 79.6567 18.35C79.0367 19.07 78.7267 20.25 78.7267 21.89C78.7267 23.53 79.0367 24.72 79.6567 25.46C80.2967 26.18 81.3567 26.54 82.8367 26.54ZM91.4584 29V14.78H94.4584L94.6084 16.28C95.2484 15.78 96.0084 15.36 96.8884 15.02C97.7884 14.66 98.7784 14.48 99.8584 14.48C101.698 14.48 103.038 14.91 103.878 15.77C104.718 16.63 105.138 17.97 105.138 19.79V29H101.898V19.94C101.898 18.84 101.668 18.07 101.208 17.63C100.768 17.19 99.9284 16.97 98.6884 16.97C97.9484 16.97 97.2184 17.12 96.4984 17.42C95.7984 17.72 95.2084 18.11 94.7284 18.59V29H91.4584ZM111.542 29.3C110.562 29.3 109.622 29.23 108.722 29.09C107.842 28.95 107.112 28.78 106.532 28.58V25.82C107.212 26.08 107.962 26.28 108.782 26.42C109.602 26.56 110.382 26.63 111.122 26.63C112.242 26.63 113.042 26.53 113.522 26.33C114.002 26.13 114.242 25.74 114.242 25.16C114.242 24.74 114.092 24.41 113.792 24.17C113.512 23.93 113.082 23.71 112.502 23.51C111.942 23.31 111.222 23.07 110.342 22.79C109.502 22.51 108.772 22.21 108.152 21.89C107.532 21.55 107.052 21.12 106.712 20.6C106.372 20.08 106.202 19.4 106.202 18.56C106.202 17.26 106.672 16.26 107.612 15.56C108.552 14.84 110.062 14.48 112.142 14.48C112.962 14.48 113.742 14.54 114.482 14.66C115.222 14.78 115.852 14.93 116.372 15.11V17.84C115.812 17.62 115.192 17.45 114.512 17.33C113.852 17.21 113.232 17.15 112.652 17.15C111.612 17.15 110.822 17.24 110.282 17.42C109.762 17.6 109.502 17.96 109.502 18.5C109.502 19.06 109.772 19.46 110.312 19.7C110.872 19.92 111.762 20.23 112.982 20.63C114.102 20.97 114.992 21.33 115.652 21.71C116.312 22.09 116.782 22.55 117.062 23.09C117.362 23.61 117.512 24.29 117.512 25.13C117.512 26.53 117.002 27.58 115.982 28.28C114.962 28.96 113.482 29.3 111.542 29.3ZM118.718 29V8.78H121.988V16.16C122.608 15.66 123.348 15.26 124.208 14.96C125.068 14.64 126.038 14.48 127.118 14.48C128.918 14.48 130.248 14.91 131.108 15.77C131.968 16.63 132.398 17.97 132.398 19.79V29H129.158V19.94C129.158 18.84 128.918 18.07 128.438 17.63C127.978 17.19 127.168 16.97 126.008 16.97C125.288 16.97 124.558 17.13 123.818 17.45C123.078 17.75 122.468 18.15 121.988 18.65V29H118.718ZM140.579 29.3C138.019 29.3 136.139 28.66 134.939 27.38C133.759 26.1 133.169 24.27 133.169 21.89C133.169 19.51 133.769 17.68 134.969 16.4C136.169 15.12 138.039 14.48 140.579 14.48C143.139 14.48 145.019 15.12 146.219 16.4C147.419 17.68 148.019 19.51 148.019 21.89C148.019 24.27 147.419 26.1 146.219 27.38C145.039 28.66 143.159 29.3 140.579 29.3ZM140.579 26.54C142.079 26.54 143.139 26.18 143.759 25.46C144.399 24.72 144.719 23.53 144.719 21.89C144.719 20.25 144.399 19.07 143.759 18.35C143.139 17.63 142.079 17.27 140.579 17.27C139.099 17.27 138.039 17.63 137.399 18.35C136.779 19.07 136.469 20.25 136.469 21.89C136.469 23.53 136.779 24.72 137.399 25.46C138.039 26.18 139.099 26.54 140.579 26.54ZM154.631 29.3C153.111 29.3 151.971 28.9 151.211 28.1C150.471 27.28 150.101 26.17 150.101 24.77V17.33H148.001V14.78H150.101V11.51L153.341 10.52V14.78H157.121L156.911 17.33H153.341V24.59C153.341 25.41 153.531 25.99 153.911 26.33C154.291 26.65 154.911 26.81 155.771 26.81C156.311 26.81 156.881 26.71 157.481 26.51V28.82C156.701 29.14 155.751 29.3 154.631 29.3ZM162.802 29L170.122 9.68H172.222L179.512 29H177.832L175.702 23.36H166.642L164.512 29H162.802ZM167.002 22.01H175.312L171.142 11L167.002 22.01ZM181.412 29V9.68H183.062V29H181.412ZM190.625 29V9.68H197.885C199.745 9.68 201.245 10.02 202.385 10.7C203.525 11.36 204.355 12.41 204.875 13.85C205.415 15.29 205.685 17.17 205.685 19.49C205.685 22.77 205.085 25.18 203.885 26.72C202.705 28.24 200.705 29 197.885 29H190.625ZM192.275 27.68H197.525C198.985 27.68 200.195 27.46 201.155 27.02C202.115 26.58 202.835 25.77 203.315 24.59C203.795 23.41 204.035 21.71 204.035 19.49C204.035 17.29 203.815 15.58 203.375 14.36C202.955 13.12 202.265 12.26 201.305 11.78C200.365 11.28 199.105 11.03 197.525 11.03H192.275V27.68ZM214.33 29.3C211.77 29.3 209.9 28.7 208.72 27.5C207.56 26.28 206.98 24.38 206.98 21.8C206.98 19.52 207.49 17.73 208.51 16.43C209.55 15.13 211.23 14.48 213.55 14.48C214.93 14.48 216.05 14.74 216.91 15.26C217.77 15.76 218.4 16.44 218.8 17.3C219.22 18.16 219.43 19.12 219.43 20.18V22.76H208.63C208.71 24.6 209.19 25.93 210.07 26.75C210.95 27.55 212.48 27.95 214.66 27.95C215.98 27.95 217.26 27.7 218.5 27.2V28.55C217.28 29.05 215.89 29.3 214.33 29.3ZM208.63 21.47H217.93V20.12C217.93 18.8 217.59 17.76 216.91 17C216.23 16.24 215.12 15.86 213.58 15.86C211.7 15.86 210.4 16.35 209.68 17.33C208.98 18.29 208.63 19.67 208.63 21.47ZM225.658 29.3C224.818 29.3 224.008 29.24 223.228 29.12C222.468 29.02 221.818 28.88 221.278 28.7V27.23C221.938 27.45 222.618 27.62 223.318 27.74C224.018 27.84 224.728 27.89 225.448 27.89C226.848 27.89 227.848 27.71 228.448 27.35C229.048 26.97 229.348 26.32 229.348 25.4C229.348 24.76 229.198 24.28 228.898 23.96C228.618 23.62 228.168 23.33 227.548 23.09C226.928 22.85 226.138 22.57 225.178 22.25C224.378 21.97 223.648 21.7 222.988 21.44C222.348 21.16 221.838 20.78 221.458 20.3C221.078 19.8 220.888 19.11 220.888 18.23C220.888 16.99 221.298 16.06 222.118 15.44C222.938 14.8 224.268 14.48 226.108 14.48C226.828 14.48 227.508 14.53 228.148 14.63C228.808 14.71 229.388 14.83 229.888 14.99V16.46C228.728 16.1 227.548 15.92 226.348 15.92C224.928 15.92 223.928 16.1 223.348 16.46C222.788 16.8 222.508 17.38 222.508 18.2C222.508 18.76 222.628 19.2 222.868 19.52C223.128 19.82 223.528 20.08 224.068 20.3C224.628 20.52 225.348 20.77 226.228 21.05C227.288 21.39 228.168 21.73 228.868 22.07C229.588 22.41 230.118 22.84 230.458 23.36C230.818 23.86 230.998 24.54 230.998 25.4C230.998 26.8 230.518 27.8 229.558 28.4C228.618 29 227.318 29.3 225.658 29.3ZM233.708 11.09V9.29H235.598V11.09H233.708ZM233.918 29V16.16H231.698L231.878 14.78H235.568V29H233.918ZM243.484 34.28C242.424 34.28 241.414 34.22 240.454 34.1C239.494 34 238.664 33.82 237.964 33.56V32.15C238.784 32.41 239.664 32.6 240.604 32.72C241.564 32.86 242.504 32.93 243.424 32.93C244.984 32.93 246.174 32.81 246.994 32.57C247.814 32.33 248.224 31.76 248.224 30.86C248.224 30.18 248.014 29.7 247.594 29.42C247.174 29.16 246.394 29.03 245.254 29.03H241.384C240.064 29.03 239.094 28.82 238.474 28.4C237.854 27.98 237.544 27.36 237.544 26.54C237.544 25.96 237.754 25.42 238.174 24.92C238.594 24.42 239.204 24.07 240.004 23.87C239.104 23.51 238.464 22.95 238.084 22.19C237.724 21.43 237.544 20.56 237.544 19.58C237.544 17.8 238.034 16.51 239.014 15.71C239.994 14.89 241.514 14.48 243.574 14.48C243.994 14.48 244.414 14.52 244.834 14.6C245.274 14.66 245.624 14.72 245.884 14.78H250.894L250.834 16.01H248.074C248.594 16.45 248.964 16.98 249.184 17.6C249.424 18.22 249.544 18.88 249.544 19.58C249.544 21.2 249.084 22.44 248.164 23.3C247.264 24.14 245.834 24.56 243.874 24.56C243.554 24.56 243.244 24.55 242.944 24.53C242.644 24.49 242.314 24.44 241.954 24.38C241.214 24.46 240.564 24.67 240.004 25.01C239.444 25.33 239.164 25.78 239.164 26.36C239.164 26.8 239.334 27.12 239.674 27.32C240.034 27.52 240.684 27.62 241.624 27.62H245.614C248.454 27.62 249.874 28.67 249.874 30.77C249.874 32.17 249.314 33.1 248.194 33.56C247.074 34.04 245.504 34.28 243.484 34.28ZM243.574 23.27C245.214 23.27 246.344 22.99 246.964 22.43C247.604 21.87 247.924 20.92 247.924 19.58C247.924 18.24 247.584 17.27 246.904 16.67C246.244 16.07 245.134 15.77 243.574 15.77C242.014 15.77 240.894 16.06 240.214 16.64C239.534 17.22 239.194 18.2 239.194 19.58C239.194 20.86 239.514 21.8 240.154 22.4C240.814 22.98 241.954 23.27 243.574 23.27ZM251.582 29V14.78H253.022L253.172 16.52C253.892 15.92 254.712 15.43 255.632 15.05C256.552 14.67 257.652 14.48 258.932 14.48C260.712 14.48 262.002 14.89 262.802 15.71C263.602 16.53 264.002 17.83 264.002 19.61V29H262.352V19.64C262.352 18.24 262.062 17.26 261.482 16.7C260.922 16.14 259.842 15.86 258.242 15.86C257.242 15.86 256.312 16.05 255.452 16.43C254.612 16.81 253.872 17.31 253.232 17.93V29H251.582ZM272.797 29.3C270.237 29.3 268.367 28.7 267.187 27.5C266.027 26.28 265.447 24.38 265.447 21.8C265.447 19.52 265.957 17.73 266.977 16.43C268.017 15.13 269.697 14.48 272.017 14.48C273.397 14.48 274.517 14.74 275.377 15.26C276.237 15.76 276.867 16.44 277.267 17.3C277.687 18.16 277.897 19.12 277.897 20.18V22.76H267.097C267.177 24.6 267.657 25.93 268.537 26.75C269.417 27.55 270.947 27.95 273.127 27.95C274.447 27.95 275.727 27.7 276.967 27.2V28.55C275.747 29.05 274.357 29.3 272.797 29.3ZM267.097 21.47H276.397V20.12C276.397 18.8 276.057 17.76 275.377 17C274.697 16.24 273.587 15.86 272.047 15.86C270.167 15.86 268.867 16.35 268.147 17.33C267.447 18.29 267.097 19.67 267.097 21.47ZM280.102 29V14.78H281.542L281.722 16.76C282.462 16.24 283.302 15.78 284.242 15.38C285.202 14.98 286.142 14.68 287.062 14.48V15.83C286.482 15.97 285.852 16.16 285.172 16.4C284.512 16.64 283.872 16.91 283.252 17.21C282.652 17.49 282.152 17.78 281.752 18.08V29H280.102Z" fill="#0E103D"/>
<circle cx="15" cy="20" r="15" fill="#6F7FE2"/>
<mask id="mask0_1265_43" style="mask-type:luminance" maskUnits="userSpaceOnUse" x="0" y="5" width="30" height="30">
<circle cx="15" cy="20" r="15" fill="white"/>
</mask>
<g mask="url(#mask0_1265_43)">
<circle opacity="0.2" cx="8.18182" cy="13.1817" r="17.0455" fill="white"/>
<circle opacity="0.2" cx="2.3864" cy="7.38628" r="16.7045" fill="white"/>
</g>
</svg>
