<svg width="340" height="44" viewBox="0 0 340 44" fill="none" xmlns="http://www.w3.org/2000/svg">
<path d="M58.052 34V10.816H62.948L69.752 24.748L76.556 10.816H81.416V34H76.556V18.916L71.156 30.004H68.348L62.912 18.916V34H58.052ZM92.541 34.36C89.349 34.36 87.009 33.592 85.521 32.056C84.033 30.496 83.289 28.3 83.289 25.468C83.289 22.636 84.033 20.452 85.521 18.916C87.033 17.356 89.373 16.576 92.541 16.576C95.733 16.576 98.073 17.356 99.561 18.916C101.073 20.452 101.829 22.636 101.829 25.468C101.829 28.3 101.085 30.496 99.597 32.056C98.109 33.592 95.757 34.36 92.541 34.36ZM92.541 30.22C94.101 30.22 95.217 29.872 95.889 29.176C96.561 28.456 96.897 27.22 96.897 25.468C96.897 23.716 96.561 22.492 95.889 21.796C95.217 21.076 94.101 20.716 92.541 20.716C91.005 20.716 89.901 21.076 89.229 21.796C88.557 22.492 88.221 23.716 88.221 25.468C88.221 27.22 88.557 28.456 89.229 29.176C89.901 29.872 91.005 30.22 92.541 30.22ZM112.24 34.36C109.048 34.36 106.708 33.592 105.22 32.056C103.732 30.496 102.988 28.3 102.988 25.468C102.988 22.636 103.732 20.452 105.22 18.916C106.732 17.356 109.072 16.576 112.24 16.576C115.432 16.576 117.772 17.356 119.26 18.916C120.772 20.452 121.528 22.636 121.528 25.468C121.528 28.3 120.784 30.496 119.296 32.056C117.808 33.592 115.456 34.36 112.24 34.36ZM112.24 30.22C113.8 30.22 114.916 29.872 115.588 29.176C116.26 28.456 116.596 27.22 116.596 25.468C116.596 23.716 116.26 22.492 115.588 21.796C114.916 21.076 113.8 20.716 112.24 20.716C110.704 20.716 109.6 21.076 108.928 21.796C108.256 22.492 107.92 23.716 107.92 25.468C107.92 27.22 108.256 28.456 108.928 29.176C109.6 29.872 110.704 30.22 112.24 30.22ZM123.407 34V16.936H127.907L128.087 18.556C128.783 18.028 129.659 17.572 130.715 17.188C131.795 16.78 132.923 16.576 134.099 16.576C136.355 16.576 137.999 17.104 139.031 18.16C140.063 19.216 140.579 20.848 140.579 23.056V34H135.719V23.308C135.719 22.156 135.479 21.34 134.999 20.86C134.543 20.38 133.679 20.14 132.407 20.14C131.663 20.14 130.907 20.308 130.139 20.644C129.395 20.98 128.771 21.4 128.267 21.904V34H123.407ZM149.048 34.36C147.776 34.36 146.564 34.264 145.412 34.072C144.26 33.904 143.336 33.688 142.64 33.424V29.392C143.48 29.728 144.428 29.992 145.484 30.184C146.54 30.352 147.512 30.436 148.4 30.436C149.6 30.436 150.44 30.364 150.92 30.22C151.424 30.076 151.676 29.752 151.676 29.248C151.676 28.672 151.292 28.252 150.524 27.988C149.78 27.724 148.664 27.352 147.176 26.872C145.616 26.344 144.416 25.708 143.576 24.964C142.736 24.22 142.316 23.116 142.316 21.652C142.316 20.02 142.904 18.772 144.08 17.908C145.28 17.02 147.2 16.576 149.84 16.576C150.896 16.576 151.892 16.66 152.828 16.828C153.764 16.972 154.556 17.152 155.204 17.368V21.364C154.556 21.052 153.812 20.824 152.972 20.68C152.132 20.512 151.352 20.428 150.632 20.428C149.6 20.428 148.772 20.5 148.148 20.644C147.548 20.788 147.248 21.1 147.248 21.58C147.248 22.108 147.572 22.48 148.22 22.696C148.892 22.912 149.924 23.236 151.316 23.668C152.684 24.076 153.752 24.52 154.52 25C155.288 25.48 155.828 26.056 156.14 26.728C156.452 27.376 156.608 28.192 156.608 29.176C156.608 32.632 154.088 34.36 149.048 34.36ZM158.482 34V9.736H163.342V18.376C164.038 17.848 164.89 17.416 165.898 17.08C166.906 16.744 167.998 16.576 169.174 16.576C171.43 16.576 173.074 17.104 174.106 18.16C175.138 19.216 175.654 20.848 175.654 23.056V34H170.794V23.308C170.794 22.156 170.554 21.34 170.074 20.86C169.618 20.38 168.754 20.14 167.482 20.14C166.738 20.14 165.982 20.308 165.214 20.644C164.47 20.98 163.846 21.4 163.342 21.904V34H158.482ZM186.08 34.36C182.888 34.36 180.548 33.592 179.06 32.056C177.572 30.496 176.828 28.3 176.828 25.468C176.828 22.636 177.572 20.452 179.06 18.916C180.572 17.356 182.912 16.576 186.08 16.576C189.272 16.576 191.612 17.356 193.1 18.916C194.612 20.452 195.368 22.636 195.368 25.468C195.368 28.3 194.624 30.496 193.136 32.056C191.648 33.592 189.296 34.36 186.08 34.36ZM186.08 30.22C187.64 30.22 188.756 29.872 189.428 29.176C190.1 28.456 190.436 27.22 190.436 25.468C190.436 23.716 190.1 22.492 189.428 21.796C188.756 21.076 187.64 20.716 186.08 20.716C184.544 20.716 183.44 21.076 182.768 21.796C182.096 22.492 181.76 23.716 181.76 25.468C181.76 27.22 182.096 28.456 182.768 29.176C183.44 29.872 184.544 30.22 186.08 30.22ZM204.015 34.36C202.047 34.36 200.583 33.844 199.623 32.812C198.687 31.78 198.219 30.376 198.219 28.6V20.68H195.807V16.936H198.219V13.264L203.079 11.824V16.936H207.399L207.111 20.68H203.079V28.276C203.079 29.212 203.295 29.86 203.727 30.22C204.159 30.556 204.831 30.724 205.743 30.724C206.415 30.724 207.111 30.604 207.831 30.364V33.712C207.303 33.928 206.727 34.084 206.103 34.18C205.479 34.3 204.783 34.36 204.015 34.36ZM215.226 34L224.01 10.816H226.53L235.278 34H233.262L230.706 27.232H219.834L217.278 34H215.226ZM220.266 25.612H230.238L225.234 12.4L220.266 25.612ZM237.958 34V10.816H239.938V34H237.958ZM256.401 34.36C253.617 34.36 251.373 34.024 249.669 33.352V31.588C251.661 32.308 253.857 32.668 256.257 32.668C258.513 32.668 260.217 32.32 261.369 31.624C262.521 30.928 263.097 29.752 263.097 28.096C263.097 27.088 262.869 26.272 262.413 25.648C261.957 25.024 261.225 24.508 260.217 24.1C259.233 23.668 257.901 23.272 256.221 22.912C254.445 22.504 253.029 22.036 251.973 21.508C250.941 20.956 250.197 20.284 249.741 19.492C249.309 18.7 249.093 17.764 249.093 16.684C249.093 14.812 249.765 13.312 251.109 12.184C252.477 11.032 254.577 10.456 257.409 10.456C258.705 10.456 259.917 10.552 261.045 10.744C262.173 10.936 263.037 11.128 263.637 11.32V13.084C261.909 12.484 259.965 12.184 257.805 12.184C255.621 12.184 253.941 12.544 252.765 13.264C251.613 13.96 251.037 15.1 251.037 16.684C251.037 17.572 251.229 18.304 251.613 18.88C252.021 19.432 252.705 19.9 253.665 20.284C254.625 20.668 255.945 21.064 257.625 21.472C259.521 21.904 260.997 22.432 262.053 23.056C263.133 23.656 263.901 24.376 264.357 25.216C264.813 26.032 265.041 26.992 265.041 28.096C265.041 30.16 264.309 31.72 262.845 32.776C261.381 33.832 259.233 34.36 256.401 34.36ZM273.124 34.36C271.612 34.36 270.448 33.94 269.632 33.1C268.816 32.26 268.408 31.084 268.408 29.572V18.592H265.744V16.936H268.408V12.472L270.388 11.824V16.936H275.32L275.212 18.592H270.388V29.5C270.388 30.604 270.64 31.42 271.144 31.948C271.672 32.476 272.524 32.74 273.7 32.74C274.012 32.74 274.336 32.716 274.672 32.668C275.032 32.596 275.416 32.488 275.824 32.344V33.928C275.032 34.216 274.132 34.36 273.124 34.36ZM283.643 34.36C281.603 34.36 280.055 33.784 278.999 32.632C277.943 31.48 277.415 29.848 277.415 27.736V16.936H279.395V27.808C279.395 29.44 279.803 30.676 280.619 31.516C281.435 32.332 282.719 32.74 284.471 32.74C285.671 32.74 286.763 32.512 287.747 32.056C288.755 31.576 289.619 30.976 290.339 30.256V16.936H292.319V34H290.555L290.375 31.912C289.535 32.656 288.575 33.256 287.495 33.712C286.415 34.144 285.131 34.36 283.643 34.36ZM302.616 34.36C301.128 34.36 299.808 34.06 298.656 33.46C297.504 32.86 296.604 31.924 295.956 30.652C295.308 29.356 294.984 27.676 294.984 25.612C294.984 22.516 295.68 20.236 297.072 18.772C298.488 17.308 300.396 16.576 302.796 16.576C303.972 16.576 305.016 16.72 305.928 17.008C306.864 17.272 307.764 17.728 308.628 18.376V9.736H310.608V34H308.952L308.772 32.092C307.956 32.86 307.056 33.436 306.072 33.82C305.088 34.18 303.936 34.36 302.616 34.36ZM303.084 32.74C305.34 32.74 307.188 31.972 308.628 30.436V20.104C307.956 19.528 307.2 19.072 306.36 18.736C305.52 18.4 304.512 18.232 303.336 18.232C301.224 18.232 299.628 18.82 298.548 19.996C297.468 21.172 296.928 23.044 296.928 25.612C296.928 28.036 297.432 29.836 298.44 31.012C299.448 32.164 300.996 32.74 303.084 32.74ZM316.076 12.508V10.348H318.344V12.508H316.076ZM316.328 34V18.592H313.664L313.88 16.936H318.308V34H316.328ZM329.143 34.36C326.263 34.36 324.187 33.604 322.915 32.092C321.643 30.58 321.007 28.372 321.007 25.468C321.007 22.588 321.655 20.392 322.951 18.88C324.247 17.344 326.311 16.576 329.143 16.576C331.999 16.576 334.075 17.344 335.371 18.88C336.667 20.392 337.315 22.588 337.315 25.468C337.315 28.372 336.667 30.58 335.371 32.092C334.099 33.604 332.023 34.36 329.143 34.36ZM329.143 32.668C331.423 32.668 333.019 32.08 333.931 30.904C334.867 29.728 335.335 27.916 335.335 25.468C335.335 23.044 334.867 21.244 333.931 20.068C332.995 18.892 331.399 18.304 329.143 18.304C326.887 18.304 325.291 18.892 324.355 20.068C323.419 21.244 322.951 23.044 322.951 25.468C322.951 27.916 323.419 29.728 324.355 30.904C325.291 32.08 326.887 32.668 329.143 32.668Z" fill="#0E103D"/>
<circle cx="22" cy="22" r="22" fill="#6F7FE2"/>
<mask id="mask0_156_109" style="mask-type:luminance" maskUnits="userSpaceOnUse" x="0" y="0" width="44" height="44">
<circle cx="22" cy="22" r="22" fill="white"/>
</mask>
<g mask="url(#mask0_156_109)">
<circle opacity="0.2" cx="12" cy="12" r="25" fill="white"/>
<circle opacity="0.2" cx="3.50002" cy="3.50006" r="24.5" fill="white"/>
</g>
</svg>
